<svg width="200" height="200" xmlns="http://www.w3.org/2000/svg" preserveAspectRatio="xMidYMid meet">
 <metadata>Created by potrace 1.16, written by Peter Selinger 2001-2019</metadata>

 <g>
  <title>background</title>
  <rect fill="none" id="canvas_background" height="1022" width="1904" y="-1" x="-1"/>
 </g>
 <g>
  <title>Layer 1</title>
  <g id="svg_1" fill="#000000" transform="translate(0,200) scale(0.10000000149011612,-0.10000000149011612) ">
   <path stroke="null" id="svg_2" d="m438.772566,1774.210272c-80.804682,-22.950999 -159.890115,-51.198382 -175.363352,-60.02569c-15.473237,-8.827307 -80.804682,-26.481922 -142.697629,-38.840152c-113.470404,-21.185537 -151.293872,-51.198382 -115.189653,-88.273073c12.03474,-12.35823 51.577456,-7.061846 127.224392,17.654615c151.293872,49.432921 173.644103,45.901998 161.609363,-21.185537c-5.157746,-30.012845 -18.911734,-135.940532 -29.227225,-233.040912c-25.788728,-220.682682 -12.03474,-294.832063 58.454451,-303.659371c39.542717,-5.296384 46.419711,0 46.419711,38.840152c0,24.71646 -8.596243,49.432921 -18.911734,56.494767c-13.753988,8.827307 -17.192485,49.432921 -8.596243,128.878686c18.911734,210.089913 39.542717,368.981444 49.858208,384.870598c10.315491,17.654615 216.625317,81.211227 245.852542,74.149381c39.542717,-7.061846 58.454451,3.530923 58.454451,35.309229c0,67.087535 -56.735202,68.852997 -257.887282,8.827307z"/>
   <path stroke="null" id="svg_3" d="m1128.998748,1805.630348c-156.451618,-45.901998 -242.414045,-91.803996 -242.414045,-130.644148c0,-51.198382 25.788728,-60.02569 85.962427,-28.247383l51.577456,28.247383l-1.719249,-312.486678c-1.719249,-330.141292 1.719249,-342.499523 79.085433,-342.499523c37.823468,0 232.098554,180.077069 304.306993,282.473833c68.769942,97.10038 115.189653,201.262606 122.066647,275.411987c18.911734,181.84253 -173.644103,291.30114 -398.865663,227.744528zm269.922022,-107.693149c53.296705,-44.136536 58.454451,-52.963844 49.858208,-118.285918c-5.157746,-44.136536 -39.542717,-116.520456 -89.400924,-192.435299c-82.52393,-121.816841 -228.660057,-270.115603 -247.571791,-250.695527c-5.157746,5.296384 -10.315491,135.940532 -10.315491,291.30114l0,280.708372l42.981214,15.889153c87.681676,33.543768 190.836589,22.950999 254.448785,-26.481922z"/>
   <path stroke="null" id="svg_4" d="m712.9406,1584.947666c-34.384971,-17.654615 -99.716416,-75.914843 -144.416878,-127.113225c-75.646936,-86.507611 -80.804682,-97.10038 -72.208439,-171.249761c10.315491,-90.038534 44.700462,-125.347763 123.785895,-125.347763c70.48919,0 221.783063,79.445766 245.852542,128.878686c30.946474,67.087535 55.015954,157.12607 55.015954,206.55899c0,97.10038 -108.312658,143.002378 -208.029074,88.273073z"/>
   <path stroke="null" id="svg_5" d="m1729.016491,1588.478589c-75.646936,-37.074691 -201.15208,-165.953377 -225.22156,-227.744528c-36.104219,-100.631303 25.788728,-199.497145 125.505144,-199.497145c58.454451,0 189.11734,60.02569 226.940808,104.162226c37.823468,44.136536 79.085433,247.164604 58.454451,289.535679c-13.753988,28.247383 -80.804682,65.322074 -113.470404,65.322074c-6.876994,0 -39.542717,-14.123692 -72.208439,-31.778306z"/>
  </g>
 </g>
</svg>