<?xml version="1.0" standalone="no"?>
<!DOCTYPE svg PUBLIC "-//W3C//DTD SVG 20010904//EN"
 "http://www.w3.org/TR/2001/REC-SVG-20010904/DTD/svg10.dtd">
<svg version="1.0" xmlns="http://www.w3.org/2000/svg"
 width="200.000000pt" height="200.000000pt" viewBox="0 0 200.000000 200.000000"
 preserveAspectRatio="xMidYMid meet">
<metadata>
Created by potrace 1.16, written by Peter Selinger 2001-2019
</metadata>
<g transform="translate(0.000000,200.000000) scale(0.100000,-0.100000)"
fill="#000000" stroke="none">
<path d="M1050 994 c-47 -13 -93 -29 -102 -34 -9 -5 -47 -15 -83 -22 -66 -12
-88 -29 -67 -50 7 -7 30 -4 74 10 88 28 101 26 94 -12 -3 -17 -11 -77 -17
-132 -15 -125 -7 -167 34 -172 23 -3 27 0 27 22 0 14 -5 28 -11 32 -8 5 -10
28 -5 73 11 119 23 209 29 218 6 10 126 46 143 42 23 -4 34 2 34 20 0 38 -33
39 -150 5z"/>
<path d="M1441 1005 c-91 -26 -141 -52 -141 -74 0 -29 15 -34 50 -16 l30 16
-1 -177 c-1 -187 1 -194 46 -194 22 0 135 102 177 160 40 55 67 114 71 156 11
103 -101 165 -232 129z m157 -61 c31 -25 34 -30 29 -67 -3 -25 -23 -66 -52
-109 -48 -69 -133 -153 -144 -142 -3 3 -6 77 -6 165 l0 159 25 9 c51 19 111
13 148 -15z"/>
<path d="M1199 880 c-20 -10 -58 -43 -84 -72 -44 -49 -47 -55 -42 -97 6 -51
26 -71 72 -71 41 0 129 45 143 73 18 38 32 89 32 117 0 55 -63 81 -121 50z"/>
<path d="M1790 882 c-44 -21 -117 -94 -131 -129 -21 -57 15 -113 73 -113 34 0
110 34 132 59 22 25 46 140 34 164 -8 16 -47 37 -66 37 -4 0 -23 -8 -42 -18z"/>
</g>
</svg>
